<svg width="25" height="15" viewBox="0 0 25 15" fill="none" xmlns="http://www.w3.org/2000/svg">
<g clip-path="url(#clip0_1_45442)">
<path d="M2.43359 1.81689V13.4836L3.60026 12.9002L4.76693 13.4836L5.93359 12.9002L7.10026 13.4836L8.26693 12.9002L9.43359 13.4836L10.6003 12.9002L11.7669 13.4836V1.81689L10.6003 2.40023L9.43359 1.81689L8.26693 2.40023L7.10026 1.81689L5.93359 2.40023L4.76693 1.81689L3.60026 2.40023L2.43359 1.81689Z" stroke="#99A1AF" stroke-width="1.16667" stroke-linecap="round" stroke-linejoin="round"/>
<path d="M9.43229 5.31689H5.93229C5.62287 5.31689 5.32613 5.43981 5.10733 5.6586C4.88854 5.8774 4.76563 6.17414 4.76562 6.48356C4.76563 6.79298 4.88854 7.08973 5.10733 7.30852C5.32613 7.52731 5.62287 7.65023 5.93229 7.65023H8.26562C8.57504 7.65023 8.87179 7.77314 9.09058 7.99194C9.30937 8.21073 9.43229 8.50748 9.43229 8.81689C9.43229 9.12631 9.30937 9.42306 9.09058 9.64185C8.87179 9.86064 8.57504 9.98356 8.26562 9.98356H4.76562" stroke="#99A1AF" stroke-width="1.16667" stroke-linecap="round" stroke-linejoin="round"/>
<path d="M7.09961 10.8586V4.44189" stroke="#99A1AF" stroke-width="1.16667" stroke-linecap="round" stroke-linejoin="round"/>
</g>
<defs>
<clipPath id="clip0_1_45442">
<rect width="14" height="14" fill="white" transform="translate(0.0996094 0.650391)"/>
</clipPath>
</defs>
</svg>
