<svg width="25" height="15" viewBox="0 0 25 15" fill="none" xmlns="http://www.w3.org/2000/svg">
<g clip-path="url(#clip0_1_45448)">
<path d="M11.1829 4.73372V2.98372C11.1829 2.82901 11.1215 2.68064 11.0121 2.57124C10.9027 2.46185 10.7543 2.40039 10.5996 2.40039H3.01628C2.70686 2.40039 2.41011 2.52331 2.19132 2.7421C1.97253 2.96089 1.84961 3.25764 1.84961 3.56706C1.84961 3.87648 1.97253 4.17322 2.19132 4.39202C2.41011 4.61081 2.70686 4.73372 3.01628 4.73372H11.7663C11.921 4.73372 12.0694 4.79518 12.1788 4.90458C12.2882 5.01397 12.3496 5.16235 12.3496 5.31706V7.65039M12.3496 7.65039H10.5996C10.2902 7.65039 9.99344 7.77331 9.77465 7.9921C9.55586 8.21089 9.43294 8.50764 9.43294 8.81706C9.43294 9.12648 9.55586 9.42322 9.77465 9.64201C9.99344 9.86081 10.2902 9.98372 10.5996 9.98372H12.3496C12.5043 9.98372 12.6527 9.92227 12.7621 9.81287C12.8715 9.70347 12.9329 9.5551 12.9329 9.40039V8.23372C12.9329 8.07901 12.8715 7.93064 12.7621 7.82124C12.6527 7.71185 12.5043 7.65039 12.3496 7.65039Z" stroke="#99A1AF" stroke-width="1.16667" stroke-linecap="round" stroke-linejoin="round"/>
<path d="M1.84961 3.56689V11.7336C1.84961 12.043 1.97253 12.3397 2.19132 12.5585C2.41011 12.7773 2.70686 12.9002 3.01628 12.9002H11.7663C11.921 12.9002 12.0694 12.8388 12.1788 12.7294C12.2882 12.62 12.3496 12.4716 12.3496 12.3169V9.98356" stroke="#99A1AF" stroke-width="1.16667" stroke-linecap="round" stroke-linejoin="round"/>
</g>
<defs>
<clipPath id="clip0_1_45448">
<rect width="14" height="14" fill="white" transform="translate(0.0996094 0.650391)"/>
</clipPath>
</defs>
</svg>
