<svg width="15" height="15" viewBox="0 0 15 15" fill="none" xmlns="http://www.w3.org/2000/svg">
<path d="M6.73975 12.55C6.84215 12.7273 6.98942 12.8746 7.16677 12.977C7.34412 13.0794 7.5453 13.1333 7.75008 13.1333C7.95486 13.1333 8.15604 13.0794 8.33339 12.977C8.51074 12.8746 8.65801 12.7273 8.76041 12.55" stroke="#4A5565" stroke-width="1.16667" stroke-linecap="round" stroke-linejoin="round"/>
<path d="M2.6529 9.24017C2.57669 9.32369 2.5264 9.42756 2.50814 9.53914C2.48989 9.65071 2.50445 9.76519 2.55006 9.86865C2.59567 9.9721 2.67036 10.0601 2.76504 10.1219C2.85973 10.1836 2.97033 10.2166 3.0834 10.2167H12.4167C12.5298 10.2167 12.6404 10.1839 12.7352 10.1222C12.8299 10.0606 12.9047 9.97269 12.9504 9.8693C12.9961 9.76591 13.0108 9.65147 12.9927 9.53988C12.9746 9.42829 12.9245 9.32437 12.8484 9.24075C12.0726 8.441 11.2501 7.59108 11.2501 4.96667C11.2501 4.03841 10.8813 3.14817 10.2249 2.49179C9.56856 1.83542 8.67832 1.46667 7.75006 1.46667C6.8218 1.46667 5.93157 1.83542 5.27519 2.49179C4.61881 3.14817 4.25006 4.03841 4.25006 4.96667C4.25006 7.59108 3.42698 8.441 2.6529 9.24017Z" stroke="#4A5565" stroke-width="1.16667" stroke-linecap="round" stroke-linejoin="round"/>
</svg>
