<svg width="15" height="15" viewBox="0 0 15 15" fill="none" xmlns="http://www.w3.org/2000/svg">
<path d="M1.70516 7.31503C1.65655 7.18406 1.65655 7.03999 1.70516 6.90903C2.17865 5.76094 2.98238 4.7793 4.01445 4.08855C5.04651 3.3978 6.26044 3.02905 7.50233 3.02905C8.74422 3.02905 9.95815 3.3978 10.9902 4.08855C12.0223 4.7793 12.826 5.76094 13.2995 6.90903C13.3481 7.03999 13.3481 7.18406 13.2995 7.31503C12.826 8.46311 12.0223 9.44475 10.9902 10.1355C9.95815 10.8263 8.74422 11.195 7.50233 11.195C6.26044 11.195 5.04651 10.8263 4.01445 10.1355C2.98238 9.44475 2.17865 8.46311 1.70516 7.31503Z" stroke="#717182" stroke-width="1.16667" stroke-linecap="round" stroke-linejoin="round"/>
<path d="M7.50244 8.86206C8.46894 8.86206 9.25244 8.07856 9.25244 7.11206C9.25244 6.14556 8.46894 5.36206 7.50244 5.36206C6.53594 5.36206 5.75244 6.14556 5.75244 7.11206C5.75244 8.07856 6.53594 8.86206 7.50244 8.86206Z" stroke="#717182" stroke-width="1.16667" stroke-linecap="round" stroke-linejoin="round"/>
</svg>
