<svg width="15" height="15" viewBox="0 0 15 15" fill="none" xmlns="http://www.w3.org/2000/svg">
<g clip-path="url(#clip0_145_14395)">
<path d="M9.36667 1.8501C9.6744 1.85448 9.96793 1.98028 10.1833 2.2001L12.4 4.41676C12.6198 4.63217 12.7456 4.9257 12.75 5.23343V11.1834C12.75 11.4928 12.6271 11.7896 12.4083 12.0084C12.1895 12.2272 11.8928 12.3501 11.5833 12.3501H3.41667C3.10725 12.3501 2.8105 12.2272 2.59171 12.0084C2.37292 11.7896 2.25 11.4928 2.25 11.1834V3.01676C2.25 2.70735 2.37292 2.4106 2.59171 2.19181C2.8105 1.97301 3.10725 1.8501 3.41667 1.8501H9.36667Z" stroke="white" stroke-width="1.16667" stroke-linecap="round" stroke-linejoin="round"/>
<path d="M10.4163 12.3503V8.26693C10.4163 8.11222 10.3549 7.96384 10.2455 7.85445C10.1361 7.74505 9.98772 7.68359 9.83301 7.68359H5.16634C5.01163 7.68359 4.86326 7.74505 4.75386 7.85445C4.64447 7.96384 4.58301 8.11222 4.58301 8.26693V12.3503" stroke="white" stroke-width="1.16667" stroke-linecap="round" stroke-linejoin="round"/>
<path d="M4.58301 1.8501V4.18343C4.58301 4.33814 4.64447 4.48651 4.75386 4.59591C4.86326 4.70531 5.01163 4.76676 5.16634 4.76676H9.24967" stroke="white" stroke-width="1.16667" stroke-linecap="round" stroke-linejoin="round"/>
</g>
<defs>
<clipPath id="clip0_145_14395">
<rect width="14" height="14" fill="white" transform="translate(0.5 0.100098)"/>
</clipPath>
</defs>
</svg>
