<svg width="15" height="15" viewBox="0 0 15 15" fill="none" xmlns="http://www.w3.org/2000/svg">
<path d="M6.91663 1.66666V2.83332" stroke="#6A7282" stroke-width="1.16667" stroke-linecap="round" stroke-linejoin="round"/>
<path d="M3.41663 1.66666V2.83332" stroke="#6A7282" stroke-width="1.16667" stroke-linecap="round" stroke-linejoin="round"/>
<path d="M3.41663 2.25H2.83329C2.52387 2.25 2.22713 2.37292 2.00833 2.59171C1.78954 2.8105 1.66663 3.10725 1.66663 3.41667V5.75C1.66663 6.67826 2.03537 7.5685 2.69175 8.22487C3.34813 8.88125 4.23837 9.25 5.16663 9.25C6.09488 9.25 6.98512 8.88125 7.6415 8.22487C8.29788 7.5685 8.66663 6.67826 8.66663 5.75V3.41667C8.66663 3.10725 8.54371 2.8105 8.32492 2.59171C8.10612 2.37292 7.80938 2.25 7.49996 2.25H6.91663" stroke="#6A7282" stroke-width="1.16667" stroke-linecap="round" stroke-linejoin="round"/>
<path d="M5.16663 9.25C5.16663 10.1783 5.53538 11.0685 6.19175 11.7249C6.84813 12.3813 7.73837 12.75 8.66663 12.75C9.59488 12.75 10.4851 12.3813 11.1415 11.7249C11.7979 11.0685 12.1666 10.1783 12.1666 9.25V7.5" stroke="#6A7282" stroke-width="1.16667" stroke-linecap="round" stroke-linejoin="round"/>
<path d="M12.1667 7.49999C12.811 7.49999 13.3333 6.97766 13.3333 6.33332C13.3333 5.68899 12.811 5.16666 12.1667 5.16666C11.5223 5.16666 11 5.68899 11 6.33332C11 6.97766 11.5223 7.49999 12.1667 7.49999Z" stroke="#6A7282" stroke-width="1.16667" stroke-linecap="round" stroke-linejoin="round"/>
</svg>
