<svg width="15" height="15" viewBox="0 0 15 15" fill="none" xmlns="http://www.w3.org/2000/svg">
<path d="M6.91667 13.1758C7.09402 13.2782 7.29521 13.3322 7.5 13.3322C7.70479 13.3322 7.90598 13.2782 8.08333 13.1758L12.1667 10.8425C12.3438 10.7402 12.491 10.5931 12.5934 10.416C12.6958 10.2389 12.7498 10.0379 12.75 9.83335V5.16668C12.7498 4.96209 12.6958 4.76115 12.5934 4.58403C12.491 4.4069 12.3438 4.25981 12.1667 4.15751L8.08333 1.82418C7.90598 1.72178 7.70479 1.66788 7.5 1.66788C7.29521 1.66788 7.09402 1.72178 6.91667 1.82418L2.83333 4.15751C2.65615 4.25981 2.50899 4.4069 2.4066 4.58403C2.30422 4.76115 2.25021 4.96209 2.25 5.16668V9.83335C2.25021 10.0379 2.30422 10.2389 2.4066 10.416C2.50899 10.5931 2.65615 10.7402 2.83333 10.8425L6.91667 13.1758Z" stroke="#6A7282" stroke-width="1.16667" stroke-linecap="round" stroke-linejoin="round"/>
<path d="M7.5 13.3333V7.5" stroke="#6A7282" stroke-width="1.16667" stroke-linecap="round" stroke-linejoin="round"/>
<path d="M2.41919 4.58334L7.50002 7.50001L12.5809 4.58334" stroke="#6A7282" stroke-width="1.16667" stroke-linecap="round" stroke-linejoin="round"/>
<path d="M4.875 2.99084L10.125 5.99501" stroke="#6A7282" stroke-width="1.16667" stroke-linecap="round" stroke-linejoin="round"/>
</svg>
