<svg width="15" height="15" viewBox="0 0 15 15" fill="none" xmlns="http://www.w3.org/2000/svg">
<path d="M9.83329 12.75V11.5833C9.83329 10.9645 9.58746 10.371 9.14987 9.93342C8.71229 9.49583 8.1188 9.25 7.49996 9.25H3.99996C3.38112 9.25 2.78763 9.49583 2.35004 9.93342C1.91246 10.371 1.66663 10.9645 1.66663 11.5833V12.75" stroke="#6A7282" stroke-width="1.16667" stroke-linecap="round" stroke-linejoin="round"/>
<path d="M9.83337 2.32466C10.3337 2.45438 10.7769 2.74657 11.0932 3.15536C11.4095 3.56416 11.5812 4.06643 11.5812 4.58333C11.5812 5.10023 11.4095 5.60249 11.0932 6.01129C10.7769 6.42009 10.3337 6.71228 9.83337 6.84199" stroke="#6A7282" stroke-width="1.16667" stroke-linecap="round" stroke-linejoin="round"/>
<path d="M13.3334 12.75V11.5833C13.333 11.0663 13.1609 10.5641 12.8442 10.1555C12.5274 9.74692 12.0839 9.45508 11.5834 9.32584" stroke="#6A7282" stroke-width="1.16667" stroke-linecap="round" stroke-linejoin="round"/>
<path d="M5.74996 6.91667C7.03862 6.91667 8.08329 5.872 8.08329 4.58333C8.08329 3.29467 7.03862 2.25 5.74996 2.25C4.46129 2.25 3.41663 3.29467 3.41663 4.58333C3.41663 5.872 4.46129 6.91667 5.74996 6.91667Z" stroke="#6A7282" stroke-width="1.16667" stroke-linecap="round" stroke-linejoin="round"/>
</svg>
