<svg width="15" height="15" viewBox="0 0 15 15" fill="none" xmlns="http://www.w3.org/2000/svg">
<path d="M7.62833 1.66666H7.37167C7.06225 1.66666 6.7655 1.78957 6.54671 2.00837C6.32792 2.22716 6.205 2.5239 6.205 2.83332V2.93832C6.20479 3.14291 6.15078 3.34385 6.0484 3.52098C5.94601 3.69811 5.79885 3.84519 5.62167 3.94749L5.37083 4.09332C5.19348 4.19572 4.99229 4.24963 4.7875 4.24963C4.58271 4.24963 4.38152 4.19572 4.20417 4.09332L4.11667 4.04666C3.84896 3.89223 3.53091 3.85033 3.23234 3.93017C2.93377 4.01001 2.67907 4.20505 2.52417 4.47249L2.39583 4.69416C2.2414 4.96187 2.19951 5.27992 2.27935 5.57849C2.35918 5.87706 2.55423 6.13175 2.82167 6.28666L2.90917 6.34499C3.0855 6.44679 3.23211 6.59296 3.33445 6.76897C3.43678 6.94499 3.49127 7.14472 3.4925 7.34832V7.64582C3.49332 7.8514 3.4398 8.05355 3.33736 8.23179C3.23492 8.41003 3.08721 8.55803 2.90917 8.66082L2.82167 8.71332C2.55423 8.86823 2.35918 9.12292 2.27935 9.42149C2.19951 9.72006 2.2414 10.0381 2.39583 10.3058L2.52417 10.5275C2.67907 10.7949 2.93377 10.99 3.23234 11.0698C3.53091 11.1496 3.84896 11.1078 4.11667 10.9533L4.20417 10.9067C4.38152 10.8043 4.58271 10.7504 4.7875 10.7504C4.99229 10.7504 5.19348 10.8043 5.37083 10.9067L5.62167 11.0525C5.79885 11.1548 5.94601 11.3019 6.0484 11.479C6.15078 11.6561 6.20479 11.8571 6.205 12.0617V12.1667C6.205 12.4761 6.32792 12.7728 6.54671 12.9916C6.7655 13.2104 7.06225 13.3333 7.37167 13.3333H7.62833C7.93775 13.3333 8.2345 13.2104 8.45329 12.9916C8.67208 12.7728 8.795 12.4761 8.795 12.1667V12.0617C8.79521 11.8571 8.84922 11.6561 8.9516 11.479C9.05399 11.3019 9.20115 11.1548 9.37833 11.0525L9.62917 10.9067C9.80652 10.8043 10.0077 10.7504 10.2125 10.7504C10.4173 10.7504 10.6185 10.8043 10.7958 10.9067L10.8833 10.9533C11.151 11.1078 11.4691 11.1496 11.7677 11.0698C12.0662 10.99 12.3209 10.7949 12.4758 10.5275L12.6042 10.3C12.7586 10.0323 12.8005 9.71423 12.7207 9.41566C12.6408 9.11709 12.4458 8.86239 12.1783 8.70749L12.0908 8.66082C11.9128 8.55803 11.7651 8.41003 11.6626 8.23179C11.5602 8.05355 11.5067 7.8514 11.5075 7.64582V7.35416C11.5067 7.14858 11.5602 6.94643 11.6626 6.76819C11.7651 6.58995 11.9128 6.44194 12.0908 6.33916L12.1783 6.28666C12.4458 6.13175 12.6408 5.87706 12.7207 5.57849C12.8005 5.27992 12.7586 4.96187 12.6042 4.69416L12.4758 4.47249C12.3209 4.20505 12.0662 4.01001 11.7677 3.93017C11.4691 3.85033 11.151 3.89223 10.8833 4.04666L10.7958 4.09332C10.6185 4.19572 10.4173 4.24963 10.2125 4.24963C10.0077 4.24963 9.80652 4.19572 9.62917 4.09332L9.37833 3.94749C9.20115 3.84519 9.05399 3.69811 8.9516 3.52098C8.84922 3.34385 8.79521 3.14291 8.795 2.93832V2.83332C8.795 2.5239 8.67208 2.22716 8.45329 2.00837C8.2345 1.78957 7.93775 1.66666 7.62833 1.66666Z" stroke="#6A7282" stroke-width="1.16667" stroke-linecap="round" stroke-linejoin="round"/>
<path d="M7.5 9.25C8.4665 9.25 9.25 8.4665 9.25 7.5C9.25 6.5335 8.4665 5.75 7.5 5.75C6.5335 5.75 5.75 6.5335 5.75 7.5C5.75 8.4665 6.5335 9.25 7.5 9.25Z" stroke="#6A7282" stroke-width="1.16667" stroke-linecap="round" stroke-linejoin="round"/>
</svg>
