<svg width="15" height="15" viewBox="0 0 15 15" fill="none" xmlns="http://www.w3.org/2000/svg">
<path d="M8.88542 1.86523H3.63542C3.326 1.86523 3.02925 1.98815 2.81046 2.20694C2.59167 2.42574 2.46875 2.72248 2.46875 3.0319V12.3652C2.46875 12.6747 2.59167 12.9714 2.81046 13.1902C3.02925 13.409 3.326 13.5319 3.63542 13.5319H10.6354C10.9448 13.5319 11.2416 13.409 11.4604 13.1902C11.6792 12.9714 11.8021 12.6747 11.8021 12.3652V4.7819L8.88542 1.86523Z" stroke="#0A0A0A" stroke-width="1.16667" stroke-linecap="round" stroke-linejoin="round"/>
<path d="M8.30176 1.86523V4.19857C8.30176 4.50799 8.42467 4.80473 8.64347 5.02353C8.86226 5.24232 9.15901 5.36523 9.46842 5.36523H11.8018" stroke="#0A0A0A" stroke-width="1.16667" stroke-linecap="round" stroke-linejoin="round"/>
<path d="M5.96842 5.94922H4.80176" stroke="#0A0A0A" stroke-width="1.16667" stroke-linecap="round" stroke-linejoin="round"/>
<path d="M9.46842 8.2832H4.80176" stroke="#0A0A0A" stroke-width="1.16667" stroke-linecap="round" stroke-linejoin="round"/>
<path d="M9.46842 10.6152H4.80176" stroke="#0A0A0A" stroke-width="1.16667" stroke-linecap="round" stroke-linejoin="round"/>
</svg>
