<svg width="15" height="15" viewBox="0 0 15 15" fill="none" xmlns="http://www.w3.org/2000/svg">
<path d="M7.37158 1.86523V3.0319" stroke="#0A0A0A" stroke-width="1.16667" stroke-linecap="round" stroke-linejoin="round"/>
<path d="M3.87158 1.86523V3.0319" stroke="#0A0A0A" stroke-width="1.16667" stroke-linecap="round" stroke-linejoin="round"/>
<path d="M3.87158 2.44922H3.28825C2.97883 2.44922 2.68208 2.57214 2.46329 2.79093C2.2445 3.00972 2.12158 3.30647 2.12158 3.61589V5.94922C2.12158 6.87748 2.49033 7.76771 3.14671 8.42409C3.80309 9.08047 4.69332 9.44922 5.62158 9.44922C6.54984 9.44922 7.44008 9.08047 8.09646 8.42409C8.75283 7.76771 9.12158 6.87748 9.12158 5.94922V3.61589C9.12158 3.30647 8.99867 3.00972 8.77987 2.79093C8.56108 2.57214 8.26433 2.44922 7.95492 2.44922H7.37158" stroke="#0A0A0A" stroke-width="1.16667" stroke-linecap="round" stroke-linejoin="round"/>
<path d="M5.62158 9.44922C5.62158 10.3775 5.99033 11.2677 6.64671 11.9241C7.30309 12.5805 8.19332 12.9492 9.12158 12.9492C10.0498 12.9492 10.9401 12.5805 11.5965 11.9241C12.2528 11.2677 12.6216 10.3775 12.6216 9.44922V7.69922" stroke="#0A0A0A" stroke-width="1.16667" stroke-linecap="round" stroke-linejoin="round"/>
<path d="M12.6217 7.69857C13.2661 7.69857 13.7884 7.17623 13.7884 6.5319C13.7884 5.88757 13.2661 5.36523 12.6217 5.36523C11.9774 5.36523 11.4551 5.88757 11.4551 6.5319C11.4551 7.17623 11.9774 7.69857 12.6217 7.69857Z" stroke="#0A0A0A" stroke-width="1.16667" stroke-linecap="round" stroke-linejoin="round"/>
</svg>
