<svg width="15" height="15" viewBox="0 0 15 15" fill="none" xmlns="http://www.w3.org/2000/svg">
<path d="M3.69466 11.1992H2.52799C2.21858 11.1992 1.92183 11.0763 1.70304 10.8575C1.48424 10.6387 1.36133 10.342 1.36133 10.0326V7.11589C1.36133 6.80647 1.48424 6.50972 1.70304 6.29093C1.92183 6.07214 2.21858 5.94922 2.52799 5.94922H11.8613C12.1707 5.94922 12.4675 6.07214 12.6863 6.29093C12.9051 6.50972 13.028 6.80647 13.028 7.11589V10.0326C13.028 10.342 12.9051 10.6387 12.6863 10.8575C12.4675 11.0763 12.1707 11.1992 11.8613 11.1992H10.6947" stroke="#0A0A0A" stroke-width="1.16667" stroke-linecap="round" stroke-linejoin="round"/>
<path d="M3.69482 5.94857V2.44857C3.69482 2.29386 3.75628 2.14548 3.86568 2.03609C3.97507 1.92669 4.12345 1.86523 4.27816 1.86523H10.1115C10.2662 1.86523 10.4146 1.92669 10.524 2.03609C10.6334 2.14548 10.6948 2.29386 10.6948 2.44857V5.94857" stroke="#0A0A0A" stroke-width="1.16667" stroke-linecap="round" stroke-linejoin="round"/>
<path d="M10.1115 8.86523H4.27816C3.95599 8.86523 3.69482 9.1264 3.69482 9.44857V12.9486C3.69482 13.2707 3.95599 13.5319 4.27816 13.5319H10.1115C10.4337 13.5319 10.6948 13.2707 10.6948 12.9486V9.44857C10.6948 9.1264 10.4337 8.86523 10.1115 8.86523Z" stroke="#0A0A0A" stroke-width="1.16667" stroke-linecap="round" stroke-linejoin="round"/>
</svg>
