<svg width="15" height="15" viewBox="0 0 15 15" fill="none" xmlns="http://www.w3.org/2000/svg">
<path d="M11.0348 1.86523H4.03483C3.3905 1.86523 2.86816 2.38757 2.86816 3.0319V12.3652C2.86816 13.0096 3.3905 13.5319 4.03483 13.5319H11.0348C11.6792 13.5319 12.2015 13.0096 12.2015 12.3652V3.0319C12.2015 2.38757 11.6792 1.86523 11.0348 1.86523Z" stroke="#0A0A0A" stroke-width="1.16667" stroke-linecap="round" stroke-linejoin="round"/>
<path d="M5.78491 13.5326V11.1992H9.28491V13.5326" stroke="#0A0A0A" stroke-width="1.16667" stroke-linecap="round" stroke-linejoin="round"/>
<path d="M5.20166 4.19922H5.20749" stroke="#0A0A0A" stroke-width="1.16667" stroke-linecap="round" stroke-linejoin="round"/>
<path d="M9.86816 4.19922H9.874" stroke="#0A0A0A" stroke-width="1.16667" stroke-linecap="round" stroke-linejoin="round"/>
<path d="M7.53491 4.19922H7.54075" stroke="#0A0A0A" stroke-width="1.16667" stroke-linecap="round" stroke-linejoin="round"/>
<path d="M7.53491 6.5332H7.54075" stroke="#0A0A0A" stroke-width="1.16667" stroke-linecap="round" stroke-linejoin="round"/>
<path d="M7.53491 8.86523H7.54075" stroke="#0A0A0A" stroke-width="1.16667" stroke-linecap="round" stroke-linejoin="round"/>
<path d="M9.86816 6.5332H9.874" stroke="#0A0A0A" stroke-width="1.16667" stroke-linecap="round" stroke-linejoin="round"/>
<path d="M9.86816 8.86523H9.874" stroke="#0A0A0A" stroke-width="1.16667" stroke-linecap="round" stroke-linejoin="round"/>
<path d="M5.20166 6.5332H5.20749" stroke="#0A0A0A" stroke-width="1.16667" stroke-linecap="round" stroke-linejoin="round"/>
<path d="M5.20166 8.86523H5.20749" stroke="#0A0A0A" stroke-width="1.16667" stroke-linecap="round" stroke-linejoin="round"/>
</svg>
