<svg width="15" height="15" viewBox="0 0 15 15" fill="none" xmlns="http://www.w3.org/2000/svg">
<path d="M10.1882 12.9492V11.7826C10.1882 11.1637 9.94232 10.5702 9.50473 10.1326C9.06715 9.69505 8.47366 9.44922 7.85482 9.44922H4.35482C3.73598 9.44922 3.14249 9.69505 2.7049 10.1326C2.26732 10.5702 2.02148 11.1637 2.02148 11.7826V12.9492" stroke="#0A0A0A" stroke-width="1.16667" stroke-linecap="round" stroke-linejoin="round"/>
<path d="M10.1885 2.52344C10.6888 2.65315 11.132 2.94534 11.4483 3.35414C11.7646 3.76294 11.9363 4.26521 11.9363 4.7821C11.9363 5.299 11.7646 5.80127 11.4483 6.21007C11.132 6.61887 10.6888 6.91105 10.1885 7.04077" stroke="#0A0A0A" stroke-width="1.16667" stroke-linecap="round" stroke-linejoin="round"/>
<path d="M13.6885 12.9496V11.7829C13.6881 11.2659 13.516 10.7637 13.1993 10.3551C12.8825 9.94647 12.4391 9.65464 11.9385 9.52539" stroke="#0A0A0A" stroke-width="1.16667" stroke-linecap="round" stroke-linejoin="round"/>
<path d="M6.10482 7.11589C7.39348 7.11589 8.43815 6.07122 8.43815 4.78255C8.43815 3.49389 7.39348 2.44922 6.10482 2.44922C4.81615 2.44922 3.77148 3.49389 3.77148 4.78255C3.77148 6.07122 4.81615 7.11589 6.10482 7.11589Z" stroke="#0A0A0A" stroke-width="1.16667" stroke-linecap="round" stroke-linejoin="round"/>
</svg>
