<svg width="15" height="15" viewBox="0 0 15 15" fill="none" xmlns="http://www.w3.org/2000/svg">
<g clip-path="url(#clip0_1_44814)">
<path d="M8.84993 1.81689H5.34993C5.02777 1.81689 4.7666 2.07806 4.7666 2.40023V3.56689C4.7666 3.88906 5.02777 4.15023 5.34993 4.15023H8.84993C9.1721 4.15023 9.43327 3.88906 9.43327 3.56689V2.40023C9.43327 2.07806 9.1721 1.81689 8.84993 1.81689Z" stroke="#99A1AF" stroke-width="1.16667" stroke-linecap="round" stroke-linejoin="round"/>
<path d="M9.43359 2.98389H10.6003C10.9097 2.98389 11.2064 3.1068 11.4252 3.3256C11.644 3.54439 11.7669 3.84113 11.7669 4.15055V12.3172C11.7669 12.6266 11.644 12.9234 11.4252 13.1422C11.2064 13.361 10.9097 13.4839 10.6003 13.4839H3.60026C3.29084 13.4839 2.99409 13.361 2.7753 13.1422C2.55651 12.9234 2.43359 12.6266 2.43359 12.3172V4.15055C2.43359 3.84113 2.55651 3.54439 2.7753 3.3256C2.99409 3.1068 3.29084 2.98389 3.60026 2.98389H4.76693" stroke="#99A1AF" stroke-width="1.16667" stroke-linecap="round" stroke-linejoin="round"/>
<path d="M7.1001 7.06689H9.43343" stroke="#99A1AF" stroke-width="1.16667" stroke-linecap="round" stroke-linejoin="round"/>
<path d="M7.1001 9.98389H9.43343" stroke="#99A1AF" stroke-width="1.16667" stroke-linecap="round" stroke-linejoin="round"/>
<path d="M4.7666 7.06689H4.77244" stroke="#99A1AF" stroke-width="1.16667" stroke-linecap="round" stroke-linejoin="round"/>
<path d="M4.7666 9.98389H4.77244" stroke="#99A1AF" stroke-width="1.16667" stroke-linecap="round" stroke-linejoin="round"/>
</g>
<defs>
<clipPath id="clip0_1_44814">
<rect width="14" height="14" fill="white" transform="translate(0.100098 0.650391)"/>
</clipPath>
</defs>
</svg>
