<svg width="15" height="15" viewBox="0 0 15 15" fill="none" xmlns="http://www.w3.org/2000/svg">
<g clip-path="url(#clip0_1_44808)">
<path d="M12.9333 7.65023H11.4866C11.2317 7.64968 10.9836 7.73266 10.7803 7.88646C10.5769 8.04026 10.4296 8.25643 10.3608 8.50189L8.98993 13.3786C8.9811 13.4089 8.96268 13.4355 8.93743 13.4544C8.91219 13.4733 8.88149 13.4836 8.84993 13.4836C8.81838 13.4836 8.78768 13.4733 8.76243 13.4544C8.73719 13.4355 8.71877 13.4089 8.70993 13.3786L5.48993 1.92189C5.4811 1.8916 5.46268 1.86499 5.43743 1.84606C5.41219 1.82713 5.38149 1.81689 5.34993 1.81689C5.31838 1.81689 5.28768 1.82713 5.26243 1.84606C5.23719 1.86499 5.21877 1.8916 5.20993 1.92189L3.8391 6.79856C3.77054 7.04307 3.62407 7.25853 3.42194 7.41224C3.2198 7.56594 2.97304 7.6495 2.7191 7.65023H1.2666" stroke="#99A1AF" stroke-width="1.16667" stroke-linecap="round" stroke-linejoin="round"/>
</g>
<defs>
<clipPath id="clip0_1_44808">
<rect width="14" height="14" fill="white" transform="translate(0.100098 0.650391)"/>
</clipPath>
</defs>
</svg>
