<svg width="15" height="15" viewBox="0 0 15 15" fill="none" xmlns="http://www.w3.org/2000/svg">
<g clip-path="url(#clip0_1_44826)">
<path d="M11.1833 8.81706C12.0524 7.96539 12.9333 6.94456 12.9333 5.60872C12.9333 4.75782 12.5952 3.94177 11.9936 3.34009C11.3919 2.73841 10.5758 2.40039 9.72493 2.40039C8.69827 2.40039 7.97493 2.69206 7.09993 3.56706C6.22493 2.69206 5.5016 2.40039 4.47493 2.40039C3.62403 2.40039 2.80798 2.73841 2.2063 3.34009C1.60462 3.94177 1.2666 4.75782 1.2666 5.60872C1.2666 6.95039 2.1416 7.97122 3.0166 8.81706L7.09993 12.9004L11.1833 8.81706Z" stroke="#99A1AF" stroke-width="1.16667" stroke-linecap="round" stroke-linejoin="round"/>
</g>
<defs>
<clipPath id="clip0_1_44826">
<rect width="14" height="14" fill="white" transform="translate(0.100098 0.650391)"/>
</clipPath>
</defs>
</svg>
