<svg width="15" height="15" viewBox="0 0 15 15" fill="none" xmlns="http://www.w3.org/2000/svg">
<path d="M2.6333 1.41699V13.0837L3.79997 12.5003L4.96663 13.0837L6.1333 12.5003L7.29997 13.0837L8.46663 12.5003L9.6333 13.0837L10.8 12.5003L11.9666 13.0837V1.41699L10.8 2.00033L9.6333 1.41699L8.46663 2.00033L7.29997 1.41699L6.1333 2.00033L4.96663 1.41699L3.79997 2.00033L2.6333 1.41699Z" stroke="#99A1AF" stroke-width="1.16667" stroke-linecap="round" stroke-linejoin="round"/>
<path d="M9.63346 4.91699H6.13346C5.82404 4.91699 5.5273 5.03991 5.30851 5.2587C5.08971 5.47749 4.9668 5.77424 4.9668 6.08366C4.9668 6.39308 5.08971 6.68982 5.30851 6.90862C5.5273 7.12741 5.82404 7.25033 6.13346 7.25033H8.4668C8.77622 7.25033 9.07296 7.37324 9.29175 7.59203C9.51055 7.81083 9.63346 8.10757 9.63346 8.41699C9.63346 8.72641 9.51055 9.02316 9.29175 9.24195C9.07296 9.46074 8.77622 9.58366 8.4668 9.58366H4.9668" stroke="#99A1AF" stroke-width="1.16667" stroke-linecap="round" stroke-linejoin="round"/>
<path d="M7.30005 10.4587V4.04199" stroke="#99A1AF" stroke-width="1.16667" stroke-linecap="round" stroke-linejoin="round"/>
</svg>
