<svg width="15" height="15" viewBox="0 0 15 15" fill="none" xmlns="http://www.w3.org/2000/svg">
<path d="M9.04997 1.41699H3.79997C3.49055 1.41699 3.1938 1.53991 2.97501 1.7587C2.75622 1.97749 2.6333 2.27424 2.6333 2.58366V11.917C2.6333 12.2264 2.75622 12.5232 2.97501 12.7419C3.1938 12.9607 3.49055 13.0837 3.79997 13.0837H10.8C11.1094 13.0837 11.4061 12.9607 11.6249 12.7419C11.8437 12.5232 11.9666 12.2264 11.9666 11.917V4.33366L9.04997 1.41699Z" stroke="#364153" stroke-width="1.16667" stroke-linecap="round" stroke-linejoin="round"/>
<path d="M8.4668 1.41699V3.75033C8.4668 4.05974 8.58971 4.35649 8.80851 4.57528C9.0273 4.79408 9.32404 4.91699 9.63346 4.91699H11.9668" stroke="#364153" stroke-width="1.16667" stroke-linecap="round" stroke-linejoin="round"/>
<path d="M6.13346 5.5H4.9668" stroke="#364153" stroke-width="1.16667" stroke-linecap="round" stroke-linejoin="round"/>
<path d="M9.63346 7.83301H4.9668" stroke="#364153" stroke-width="1.16667" stroke-linecap="round" stroke-linejoin="round"/>
<path d="M9.63346 10.167H4.9668" stroke="#364153" stroke-width="1.16667" stroke-linecap="round" stroke-linejoin="round"/>
</svg>
