<svg width="15" height="15" viewBox="0 0 15 15" fill="none" xmlns="http://www.w3.org/2000/svg">
<path d="M13.1335 7.74935H11.6868C11.4319 7.7488 11.1838 7.83178 10.9804 7.98558C10.7771 8.13938 10.6298 8.35555 10.561 8.60102L9.19013 13.4777C9.18129 13.508 9.16287 13.5346 9.13763 13.5535C9.11239 13.5724 9.08168 13.5827 9.05013 13.5827C9.01858 13.5827 8.98787 13.5724 8.96263 13.5535C8.93739 13.5346 8.91897 13.508 8.91013 13.4777L5.69013 2.02102C5.68129 1.99072 5.66287 1.96411 5.63763 1.94518C5.61239 1.92625 5.58168 1.91602 5.55013 1.91602C5.51858 1.91602 5.48787 1.92625 5.46263 1.94518C5.43739 1.96411 5.41897 1.99072 5.41013 2.02102L4.0393 6.89768C3.97073 7.14219 3.82427 7.35765 3.62213 7.51136C3.42 7.66506 3.17323 7.74862 2.9193 7.74935H1.4668" stroke="#99A1AF" stroke-width="1.16667" stroke-linecap="round" stroke-linejoin="round"/>
</svg>
