<svg width="15" height="15" viewBox="0 0 15 15" fill="none" xmlns="http://www.w3.org/2000/svg">
<path d="M2.03263 8.28667C1.86041 8.39014 1.71782 8.53633 1.61869 8.71109C1.51956 8.88585 1.46724 9.08325 1.4668 9.28417V11.1742C1.46724 11.3751 1.51956 11.5725 1.61869 11.7472C1.71782 11.922 1.86041 12.0682 2.03263 12.1717L3.78263 13.2217C3.96408 13.3307 4.17178 13.3883 4.38346 13.3883C4.59515 13.3883 4.80284 13.3307 4.9843 13.2217L7.30013 11.8333V8.625L4.38346 6.875L2.03263 8.28667Z" stroke="#99A1AF" stroke-width="1.16667" stroke-linecap="round" stroke-linejoin="round"/>
<path d="M4.38341 10.3754L1.61841 8.71289" stroke="#99A1AF" stroke-width="1.16667" stroke-linecap="round" stroke-linejoin="round"/>
<path d="M4.3833 10.375L7.29997 8.625" stroke="#99A1AF" stroke-width="1.16667" stroke-linecap="round" stroke-linejoin="round"/>
<path d="M4.3833 10.375V13.3908" stroke="#99A1AF" stroke-width="1.16667" stroke-linecap="round" stroke-linejoin="round"/>
<path d="M7.30005 8.625V11.8333L9.61588 13.2217C9.79734 13.3307 10.005 13.3883 10.2167 13.3883C10.4284 13.3883 10.6361 13.3307 10.8175 13.2217L12.5675 12.1717C12.7398 12.0682 12.8824 11.922 12.9815 11.7472C13.0806 11.5725 13.1329 11.3751 13.1334 11.1742V9.28417C13.1329 9.08325 13.0806 8.88585 12.9815 8.71109C12.8824 8.53633 12.7398 8.39014 12.5675 8.28667L10.2167 6.875L7.30005 8.625Z" stroke="#99A1AF" stroke-width="1.16667" stroke-linecap="round" stroke-linejoin="round"/>
<path d="M10.2167 10.375L7.30005 8.625" stroke="#99A1AF" stroke-width="1.16667" stroke-linecap="round" stroke-linejoin="round"/>
<path d="M10.2168 10.3754L12.9818 8.71289" stroke="#99A1AF" stroke-width="1.16667" stroke-linecap="round" stroke-linejoin="round"/>
<path d="M10.2168 10.375V13.3908" stroke="#99A1AF" stroke-width="1.16667" stroke-linecap="round" stroke-linejoin="round"/>
<path d="M4.94913 3.32794C4.77691 3.43141 4.63433 3.57761 4.53519 3.75237C4.43606 3.92712 4.38374 4.12452 4.3833 4.32544V6.87461L7.29997 8.62461L10.2166 6.87461V4.32544C10.2162 4.12452 10.1639 3.92712 10.0647 3.75237C9.96561 3.57761 9.82303 3.43141 9.6508 3.32794L7.9008 2.27794C7.71935 2.16892 7.51165 2.11133 7.29997 2.11133C7.08828 2.11133 6.88059 2.16892 6.69913 2.27794L4.94913 3.32794Z" stroke="#99A1AF" stroke-width="1.16667" stroke-linecap="round" stroke-linejoin="round"/>
<path d="M7.30016 5.41641L4.53516 3.75391" stroke="#99A1AF" stroke-width="1.16667" stroke-linecap="round" stroke-linejoin="round"/>
<path d="M7.30005 5.41641L10.065 3.75391" stroke="#99A1AF" stroke-width="1.16667" stroke-linecap="round" stroke-linejoin="round"/>
<path d="M7.30005 8.62435V5.41602" stroke="#99A1AF" stroke-width="1.16667" stroke-linecap="round" stroke-linejoin="round"/>
</svg>
